# xmcd
#
# Track frame offsets:
#	150
#	13410
#	29800
#	51575
#	72210
#	92630
#	109612
#	121850
#	137560
#	152280
#	171995
#	194620
#	209992
#	226062
#	248105
#	268237
#	290332
#
# Disc length: 4064 seconds
#
# Revision: 7
# Processed by: cddbd v1.5.2PL0 Copyright (c) Steve Scherf et al.
# Submitted via: EasyCDDAExtractor 11.1.0.1
#
DISCID=020fde11
DTITLE=Various Artist - Genuine Houserockin' Music V
DYEAR=1993
DGENRE=Blues
TTITLE0=Koko Taylor - Don't Put Your Hands On Me
TTITLE1=Billy Boy Arnold - I Wish You Would
TTITLE2=Elvin Bishop - Stealin' Watermelons
TTITLE3=Katie Webster - I'm Bad
TTITLE4=Little Charlie And The Nightcats - My Next Ex-Wife
TTITLE5=Johnny Heartsman - Paint My Mailbox Blue
TTITLE6=Saffire - The Uppity Blues Women - Don't Treat Your Man Like A Dog
TTITLE7=Clarence 'Gatemouth' Brown - Stop Time
TTITLE8=Tinsley Ellis - Highwayman
TTITLE9=William Clarke - Pawnshop Bound
TTITLE10=Lil' Ed And The Blues Imperials - Older Woman
TTITLE11=Steady Rollin' Bob Margolin - While You're Down There
TTITLE12=Kenny Neal - Right Train, Wrong Track
TTITLE13=Maurice John Vaughn - Watching Your Watch
TTITLE14=Lonnie Brooks - Feast Or Famine
TTITLE15=Charlie Musselwhite - Hear Me Talkin'
TTITLE16=Son Seals - Bad Axe
EXTD=LABEL =Alligator Records and Artist Mgmt., Inc.\nID =ALCD109\nUPC =014
EXTD=551-0109-20\nCOPYRIGHT =1993
EXTT0=
EXTT1=
EXTT2=
EXTT3=
EXTT4=
EXTT5=
EXTT6=
EXTT7=
EXTT8=
EXTT9=
EXTT10=
EXTT11=
EXTT12=
EXTT13=
EXTT14=
EXTT15=
EXTT16=
PLAYORDER=
